<?xml version="1.0" standalone="no"?>
<!DOCTYPE svg PUBLIC "-//W3C//DTD SVG 20010904//EN"
 "http://www.w3.org/TR/2001/REC-SVG-20010904/DTD/svg10.dtd">
<svg version="1.0" xmlns="http://www.w3.org/2000/svg"
 width="295.000000pt" height="258.000000pt" viewBox="0 0 295.000000 258.000000"
 preserveAspectRatio="xMidYMid meet">
<metadata>
Created by potrace 1.13, written by Peter Selinger 2001-2015
</metadata>
<g transform="translate(0.000000,258.000000) scale(0.100000,-0.100000)"
fill="#000000" stroke="none">
<path d="M1004 1776 c4 -45 2 -54 -10 -49 -7 3 -11 9 -8 14 3 5 -9 9 -25 9
-36 0 -37 -2 -14 -38 17 -27 17 -27 -3 -9 -11 9 -23 15 -26 12 -3 -3 -13 6
-22 19 -16 25 -15 26 10 43 25 16 27 16 40 -2 13 -18 14 -18 14 -1 0 11 8 25
18 32 15 12 15 13 -10 14 -15 0 -29 -4 -33 -9 -3 -6 -25 -13 -50 -16 -25 -4
-46 -14 -49 -22 -4 -8 -13 -13 -20 -10 -8 3 -20 -1 -27 -9 -7 -8 -21 -13 -33
-12 -15 2 -22 -3 -24 -19 -2 -12 -12 -25 -22 -28 -11 -3 -32 -25 -47 -48 -41
-60 -68 -63 -120 -14 -24 23 -45 38 -49 34 -7 -7 48 -82 85 -114 17 -15 20
-21 9 -17 -23 8 -23 -12 0 -26 15 -10 15 -11 0 -6 -9 3 -19 0 -22 -7 -3 -8 -7
-9 -13 -2 -4 6 -35 33 -68 60 l-60 50 49 -57 c28 -32 53 -58 56 -58 3 0 21
-11 40 -25 50 -37 23 -31 -45 10 -72 44 -85 38 -16 -7 28 -18 51 -36 51 -40 0
-4 -26 -15 -57 -23 -32 -9 -72 -21 -89 -26 -18 -5 -38 -8 -45 -7 -9 2 -13 -8
-14 -29 0 -18 5 -33 11 -33 6 0 17 -7 24 -15 8 -10 21 -13 33 -9 17 5 19 3 14
-15 -3 -11 -1 -21 4 -21 5 0 9 7 9 15 0 8 5 15 10 15 6 0 10 -4 10 -10 0 -5
11 -12 25 -16 l26 -6 -26 -14 c-15 -8 -39 -11 -56 -7 -24 5 -28 3 -23 -11 7
-19 6 -18 59 -6 22 5 53 11 69 14 15 3 51 17 78 31 47 25 49 25 43 6 -7 -22
13 -29 30 -12 6 6 10 -4 10 -27 -1 -40 8 -52 40 -52 17 0 16 3 -10 24 -24 20
-28 27 -17 37 10 11 12 10 12 -3 0 -24 32 -32 47 -12 10 14 10 19 -4 29 -10 7
-14 19 -10 29 7 17 27 22 27 7 0 -5 8 -17 18 -27 9 -9 22 -36 27 -58 9 -32 19
-46 50 -63 22 -13 45 -23 50 -22 6 0 -1 6 -14 13 -12 7 -34 34 -47 60 -28 56
-29 60 -9 52 11 -4 15 2 15 22 0 15 7 38 15 52 8 14 18 33 21 43 4 9 13 16 21
15 9 -2 24 12 34 32 11 19 23 35 29 35 5 0 15 6 22 13 6 6 22 12 34 12 12 0
27 7 34 15 7 8 17 15 22 15 5 0 29 16 54 36 59 49 176 93 266 100 85 7 263
-16 364 -47 54 -17 77 -31 124 -77 65 -64 80 -100 80 -198 0 -104 -31 -166
-106 -210 -24 -14 -104 -41 -176 -59 -148 -37 -154 -42 -22 -20 151 26 312 75
317 97 3 10 13 18 24 18 17 -1 17 -1 -1 -15 -13 -10 -15 -15 -6 -15 9 0 8 -5
-6 -16 -10 -8 -13 -12 -5 -8 21 11 91 12 91 2 0 -5 -7 -16 -15 -25 -9 -8 -13
-18 -10 -21 3 -3 11 0 17 6 21 21 41 14 36 -13 -5 -25 5 -34 18 -14 3 6 15 9
25 6 10 -3 22 -1 25 4 3 5 -6 9 -20 9 -14 0 -26 5 -26 11 0 7 11 9 29 6 39 -8
79 12 90 46 6 16 17 27 28 26 11 0 13 -3 5 -6 -15 -6 -6 -23 12 -23 7 0 13 12
13 29 0 26 -3 29 -18 20 -11 -6 -27 -5 -43 1 -14 5 -28 5 -31 1 -7 -13 -75 -9
-75 3 0 7 -3 7 -8 0 -7 -12 -46 -34 -58 -34 -4 0 1 10 12 21 l19 21 -53 -7
c-52 -7 -53 -6 -43 13 6 12 11 31 11 44 0 13 5 30 10 38 9 13 11 13 20 0 9
-12 10 -12 8 5 -2 16 3 20 25 20 15 -1 27 5 27 12 0 7 -11 13 -25 13 -14 0
-25 -5 -25 -12 0 -6 -3 -8 -6 -5 -4 4 -8 45 -10 91 -3 80 -2 85 16 78 10 -4
38 -25 62 -47 23 -21 49 -38 56 -37 6 2 13 -2 13 -8 1 -5 2 -16 3 -22 0 -7 8
-13 16 -13 8 0 21 -5 28 -12 13 -13 17 -47 4 -39 -9 6 -9 -30 0 -39 3 -3 15
13 26 36 20 40 20 43 4 55 -9 8 -12 14 -6 14 13 0 15 30 2 30 -11 0 1 42 14
51 5 3 0 17 -11 30 -12 16 -16 30 -11 39 6 10 11 8 21 -9 8 -11 19 -21 26 -21
7 0 13 -5 13 -11 0 -5 -4 -7 -10 -4 -5 3 -10 1 -10 -5 0 -7 7 -10 14 -7 9 4
17 -2 21 -14 4 -10 11 -19 16 -19 11 0 -1 25 -39 82 -13 21 -22 44 -19 52 4 9
2 18 -3 21 -4 3 -10 0 -12 -7 -3 -7 -13 1 -24 17 -51 75 -150 167 -212 196
-35 17 -70 28 -78 25 -9 -3 -25 1 -37 9 -42 29 -40 14 3 -30 24 -25 40 -45 34
-45 -5 0 -18 11 -28 25 -10 14 -25 25 -33 25 -8 0 -27 12 -42 28 -20 19 -39
28 -69 29 -24 2 -42 -2 -42 -8 0 -6 4 -8 9 -5 11 7 41 -3 41 -14 0 -12 -40 -6
-68 9 -12 6 -28 11 -35 10 -6 -1 -19 0 -27 4 -31 12 -69 14 -73 4 -2 -7 -9 -7
-18 -1 -25 15 -117 15 -133 -2 -9 -9 -17 -10 -21 -4 -4 6 -11 8 -16 5 -5 -4
-14 -3 -21 1 -21 13 -59 11 -54 -3 3 -7 1 -15 -3 -18 -5 -2 -11 4 -14 15 -5
21 -27 28 -27 9 0 -17 -23 -35 -54 -43 -26 -6 -27 -6 -12 9 22 23 20 26 -10
15 -14 -6 -33 -10 -42 -10 -15 1 -15 3 2 15 17 13 17 15 4 15 -9 0 -19 -4 -23
-10 -3 -5 -13 -7 -23 -4 -11 4 -8 -2 8 -15 14 -11 20 -21 14 -21 -5 0 -23 13
-39 30 -34 36 -42 33 -21 -9 12 -22 13 -32 4 -37 -7 -4 -8 -3 -4 4 10 16 -17
15 -32 0 -9 -9 -12 -9 -12 0 0 6 7 15 16 20 10 6 13 12 6 16 -5 3 -13 -1 -16
-10 -3 -8 -10 -13 -15 -9 -5 3 -12 1 -16 -5 -3 -5 -1 -10 5 -10 6 0 8 -5 5
-10 -7 -12 -26 4 -44 38 -9 18 -9 23 1 26 39 13 40 14 10 15 l-32 1 4 -54z
m-371 -381 c20 -3 37 -10 37 -14 0 -14 -69 -51 -104 -57 -17 -3 -57 -5 -89 -4
-94 2 -145 32 -74 43 17 3 61 14 97 25 35 10 71 18 80 16 8 -2 32 -6 53 -9z"/>
<path d="M1142 1398 c-7 -7 -12 -43 -12 -90 0 -68 2 -79 21 -89 12 -6 30 -8
42 -5 12 3 27 0 34 -6 8 -6 16 -8 20 -4 3 3 1 6 -5 6 -7 0 -12 14 -12 30 0 21
5 30 16 30 11 0 14 -5 10 -17 -4 -10 1 -23 13 -35 22 -20 43 -26 23 -6 -7 7
-11 30 -11 53 1 22 3 32 6 23 2 -10 9 -18 14 -18 5 0 9 -11 9 -24 0 -13 6 -28
13 -34 10 -9 12 -4 9 23 -3 22 0 35 7 35 6 0 11 -11 11 -25 0 -23 35 -54 48
-41 3 3 0 6 -6 6 -7 0 -12 14 -12 30 0 21 5 30 16 30 11 0 13 -6 9 -19 -3 -11
1 -26 10 -35 24 -24 32 -20 27 14 -2 17 -8 30 -13 30 -5 0 -9 25 -9 55 0 34 4
55 11 55 7 0 9 -12 5 -34 -8 -42 1 -66 25 -66 14 0 19 -7 19 -29 0 -27 24 -50
38 -36 3 3 0 5 -6 5 -18 0 -15 67 3 74 11 4 14 -3 12 -32 -1 -28 2 -37 16 -40
14 -3 17 4 17 33 0 42 15 39 23 -5 6 -27 10 -30 47 -30 33 0 40 3 40 20 0 11
5 20 10 20 6 0 10 -9 10 -20 0 -18 7 -20 55 -20 48 0 55 2 55 20 0 11 -7 20
-15 20 -12 0 -15 15 -15 75 0 68 -2 75 -20 75 -17 0 -20 -7 -21 -47 l-2 -48
-10 48 c-10 44 -12 47 -43 47 -28 0 -33 -4 -37 -27 l-4 -28 -2 28 c-1 20 -6
27 -21 27 -16 0 -20 -7 -21 -32 l-1 -33 -11 33 c-10 32 -12 33 -56 31 -25 -1
-58 2 -73 6 -15 4 -35 2 -47 -5 -14 -7 -21 -7 -21 0 0 13 -37 13 -45 0 -4 -7
-12 -7 -25 0 -25 13 -63 13 -77 -1 -8 -8 -13 -8 -17 0 -9 15 -59 14 -74 -1z"/>
<path d="M766 1109 c19 -21 19 -22 -3 -15 -18 6 -21 4 -16 -14 4 -15 12 -20
23 -17 30 8 44 -8 24 -27 -16 -17 -16 -19 12 -41 28 -22 28 -24 11 -42 -9 -11
-17 -22 -17 -26 0 -10 34 5 46 21 22 30 24 -6 3 -69 -21 -65 -38 -190 -24
-177 4 4 9 24 12 45 5 48 22 103 33 103 8 0 22 33 24 60 2 15 9 16 39 5 30
-12 13 43 -22 73 -14 12 -14 13 2 8 12 -4 17 -2 15 6 -2 6 -28 19 -56 27 -29
8 -51 20 -50 26 2 12 -53 75 -66 75 -5 0 -1 -10 10 -21z"/>
<path d="M2043 1065 c-22 -16 -63 -16 -74 -1 -8 10 -49 -2 -49 -14 0 -5 10 -9
23 -9 49 -1 56 -3 73 -22 16 -18 16 -19 -4 -19 -11 0 -24 -5 -28 -12 -5 -8
-11 -6 -20 7 -8 11 -19 15 -30 11 -9 -3 -23 -1 -31 5 -10 9 -17 9 -25 1 -9 -9
-9 -12 0 -12 17 0 15 -17 -3 -24 -16 -6 -54 11 -67 29 -5 6 -8 4 -8 -4 0 -8 8
-19 17 -26 15 -11 14 -12 -11 -8 -41 8 -30 -17 14 -32 31 -10 33 -13 16 -22
-17 -10 -16 -11 14 -18 24 -5 29 -10 19 -16 -11 -7 -9 -9 6 -10 11 0 14 -3 7
-6 -6 -2 -9 -9 -6 -14 3 -6 16 -3 31 7 15 9 28 12 32 7 9 -14 40 -23 45 -14 3
4 -6 14 -20 21 -13 8 -23 19 -20 26 3 8 -1 11 -10 7 -7 -3 -14 0 -14 6 0 6
-10 11 -22 11 -21 0 -21 0 -2 15 10 8 15 15 9 14 -23 -3 -36 2 -30 11 13 21
45 8 93 -37 27 -27 52 -55 55 -63 4 -13 6 -13 11 1 5 11 -2 27 -18 44 -27 29
-30 42 -20 69 7 17 44 22 44 6 0 -5 7 -10 16 -10 13 0 13 5 -5 33 -21 34 -15
57 16 57 7 0 13 5 13 10 0 14 -12 12 -37 -5z"/>
<path d="M962 968 c-1 -17 3 -35 10 -39 10 -6 10 -11 1 -20 -8 -8 -9 -16 -3
-24 10 -13 -16 -93 -26 -82 -3 3 -1 14 5 25 14 26 14 42 1 42 -5 0 -10 -9 -10
-19 0 -11 -4 -23 -10 -26 -17 -10 -11 -39 10 -53 17 -11 20 -10 20 7 0 10 9
29 20 42 l19 24 1 -32 c0 -48 15 -47 17 0 4 79 11 97 38 97 6 0 3 -5 -5 -10
-12 -8 -8 -10 15 -11 17 -1 35 -1 40 0 6 0 10 -31 10 -77 0 -42 4 -86 9 -97 8
-19 9 -19 16 5 l8 25 1 -25 c1 -19 7 -26 21 -26 24 0 24 0 8 27 -11 17 -10 22
6 35 11 7 22 11 25 8 3 -4 0 -9 -6 -11 -7 -3 -13 -9 -13 -14 0 -11 50 -12 51
-1 5 46 27 99 45 106 10 4 13 -1 10 -17 -3 -12 -5 -23 -7 -24 -2 -3 -6 -18 -8
-30 -3 -18 -51 -64 -60 -58 -6 3 -11 1 -11 -4 0 -6 6 -11 14 -11 8 0 16 -3 19
-7 2 -5 2 -2 1 5 -2 6 3 12 11 12 8 0 15 6 15 13 0 7 6 19 13 26 10 10 14 2
23 -41 l12 -53 2 55 c1 30 2 59 1 63 -2 15 29 39 44 34 7 -3 14 -14 14 -24 1
-37 8 -62 24 -84 17 -25 17 -25 21 36 3 44 17 70 27 53 5 -8 2 -15 -9 -20 -14
-5 -13 -7 5 -7 12 -1 24 -7 27 -13 3 -7 3 1 1 17 -5 29 -4 31 30 33 31 2 35 0
35 -22 0 -29 19 -76 32 -76 4 0 8 -6 8 -14 0 -8 11 -28 24 -43 l25 -28 -24 50
c-28 56 -42 120 -25 110 6 -4 28 -4 48 0 29 4 38 11 38 26 0 10 -4 19 -8 19
-4 0 -8 -4 -8 -10 0 -5 -5 -10 -11 -10 -8 0 -8 5 1 15 7 8 10 20 7 27 -2 7 2
19 9 26 11 10 15 8 24 -8 8 -15 8 -20 -2 -21 -7 0 -2 -5 11 -10 14 -6 21 -15
17 -24 -3 -8 -1 -17 5 -20 5 -4 16 -23 24 -42 12 -28 13 -38 4 -44 -7 -4 -1
-6 14 -6 14 1 23 5 20 10 -2 4 2 7 10 7 8 0 18 7 21 16 10 25 7 29 -7 9 -10
-12 -16 -14 -21 -7 -4 7 -4 12 1 12 4 0 2 4 -6 9 -13 8 -13 12 0 27 9 11 9 15
2 10 -19 -11 -15 2 7 24 12 12 17 26 13 37 -5 13 -3 15 12 10 17 -7 45 7 45
22 0 8 -66 5 -80 -4 -17 -10 -11 17 8 38 12 15 14 21 5 24 -7 3 -13 14 -13 24
0 12 -4 17 -11 13 -6 -4 -9 -19 -5 -36 5 -25 3 -29 -10 -24 -9 3 -20 6 -26 6
-6 0 -8 6 -5 14 3 8 1 17 -6 20 -7 2 -4 5 6 5 32 2 17 17 -17 17 -26 0 -32 -3
-29 -17 3 -11 -3 -22 -16 -29 -12 -6 -19 -15 -16 -21 4 -5 2 -9 -4 -9 -17 0
-24 22 -10 31 28 18 -5 8 -35 -10 -51 -31 -72 -34 -73 -11 -1 13 4 20 15 20
15 0 15 -2 2 -10 -12 -8 -11 -10 7 -10 23 0 43 20 21 21 -7 0 -4 4 7 9 14 7 3
9 -40 8 -33 0 -71 2 -85 6 -18 5 -16 3 6 -7 43 -20 47 -31 21 -53 l-22 -19 19
23 c22 26 18 27 -30 7 -36 -15 -54 -13 -54 6 0 5 12 9 26 9 14 0 23 4 20 9 -9
15 -48 0 -53 -21 -5 -18 -43 -26 -43 -8 0 6 -14 10 -31 10 -17 0 -28 4 -24 10
3 6 -3 10 -14 10 -12 0 -20 -3 -20 -7 4 -22 -3 -24 -21 -8 -19 17 -21 17 -38
2 -17 -15 -19 -15 -36 1 -13 13 -16 14 -11 2 8 -21 -39 -25 -55 -5 -7 8 -19
15 -27 15 -8 0 -12 4 -9 9 3 5 -9 8 -27 7 -28 -1 -32 2 -32 23 0 37 -20 36
-23 -1z"/>
</g>
</svg>
